<svg width="24" height="24" viewBox="0 0 24 24" fill="none" xmlns="http://www.w3.org/2000/svg">
<path d="M5.57143 21.8571V20.1429M19.2857 21.8571V20.1429M19.2857 8.14286V4.71429C19.2857 4.25963 19.1051 3.82359 18.7836 3.5021C18.4621 3.18061 18.0261 3 17.5714 3H7.28571C6.83106 3 6.39502 3.18061 6.07353 3.5021C5.75204 3.82359 5.57143 4.25963 5.57143 4.71429V8.14286M21.8571 20.1429V12.8571C21.8571 12.2888 21.6314 11.7438 21.2295 11.3419C20.8277 10.9401 20.2826 10.7143 19.7143 10.7143C19.146 10.7143 18.6009 10.9401 18.1991 11.3419C17.7972 11.7438 17.5714 12.2888 17.5714 12.8571V15.8571H7.28571V12.8571C7.28571 12.5757 7.23029 12.2971 7.1226 12.0371C7.01491 11.7771 6.85707 11.5409 6.65809 11.3419C6.4591 11.1429 6.22288 10.9851 5.96289 10.8774C5.70291 10.7697 5.42426 10.7143 5.14286 10.7143C4.57454 10.7143 4.02949 10.9401 3.62763 11.3419C3.22576 11.7438 3 12.2888 3 12.8571V20.1429H21.8571Z" stroke="currentColor" stroke-width="1.5" stroke-miterlimit="10" stroke-linecap="square"/>
</svg>
