<svg viewBox="0 0 379 71" fill="none" xmlns="http://www.w3.org/2000/svg">
<path d="M25 40C153.484 12.5618 225.514 11.4432 354 40" stroke="currentColor" stroke-width="2" />
<path
d="M169.513 39.4538C169.026 39.4538 168.586 39.3705 168.193 39.2038C167.806 39.0371 167.5 38.7971 167.273 38.4838C167.046 38.1705 166.93 37.8005 166.923 37.3738H168.423C168.443 37.6605 168.543 37.8871 168.723 38.0538C168.91 38.2205 169.163 38.3038 169.483 38.3038C169.81 38.3038 170.066 38.2271 170.253 38.0738C170.44 37.9138 170.533 37.7071 170.533 37.4538C170.533 37.2471 170.47 37.0771 170.343 36.9438C170.216 36.8105 170.056 36.7071 169.863 36.6338C169.676 36.5538 169.416 36.4671 169.083 36.3738C168.63 36.2405 168.26 36.1105 167.973 35.9838C167.693 35.8505 167.45 35.6538 167.243 35.3938C167.043 35.1271 166.943 34.7738 166.943 34.3338C166.943 33.9205 167.046 33.5605 167.253 33.2538C167.46 32.9471 167.75 32.7138 168.123 32.5538C168.496 32.3871 168.923 32.3038 169.403 32.3038C170.123 32.3038 170.706 32.4805 171.153 32.8338C171.606 33.1805 171.856 33.6671 171.903 34.2938H170.363C170.35 34.0538 170.246 33.8571 170.053 33.7038C169.866 33.5438 169.616 33.4638 169.303 33.4638C169.03 33.4638 168.81 33.5338 168.643 33.6738C168.483 33.8138 168.403 34.0171 168.403 34.2838C168.403 34.4705 168.463 34.6271 168.583 34.7538C168.71 34.8738 168.863 34.9738 169.043 35.0538C169.23 35.1271 169.49 35.2138 169.823 35.3138C170.276 35.4471 170.646 35.5805 170.933 35.7138C171.22 35.8471 171.466 36.0471 171.673 36.3138C171.88 36.5805 171.983 36.9305 171.983 37.3638C171.983 37.7371 171.886 38.0838 171.693 38.4038C171.5 38.7238 171.216 38.9805 170.843 39.1738C170.47 39.3605 170.026 39.4538 169.513 39.4538ZM174.857 35.8838C174.857 35.1971 175.01 34.5838 175.317 34.0438C175.63 33.4971 176.054 33.0738 176.587 32.7738C177.127 32.4671 177.73 32.3138 178.397 32.3138C179.177 32.3138 179.86 32.5138 180.447 32.9138C181.034 33.3138 181.444 33.8671 181.677 34.5738H180.067C179.907 34.2405 179.68 33.9905 179.387 33.8238C179.1 33.6571 178.767 33.5738 178.387 33.5738C177.98 33.5738 177.617 33.6705 177.297 33.8638C176.984 34.0505 176.737 34.3171 176.557 34.6638C176.384 35.0105 176.297 35.4171 176.297 35.8838C176.297 36.3438 176.384 36.7505 176.557 37.1038C176.737 37.4505 176.984 37.7205 177.297 37.9138C177.617 38.1005 177.98 38.1938 178.387 38.1938C178.767 38.1938 179.1 38.1105 179.387 37.9438C179.68 37.7705 179.907 37.5171 180.067 37.1838H181.677C181.444 37.8971 181.034 38.4538 180.447 38.8538C179.867 39.2471 179.184 39.4438 178.397 39.4438C177.73 39.4438 177.127 39.2938 176.587 38.9938C176.054 38.6871 175.63 38.2638 175.317 37.7238C175.01 37.1838 174.857 36.5705 174.857 35.8838ZM188.473 39.3838L186.933 36.6638H186.273V39.3838H184.873V32.4038H187.493C188.033 32.4038 188.493 32.5005 188.873 32.6938C189.253 32.8805 189.536 33.1371 189.723 33.4638C189.916 33.7838 190.013 34.1438 190.013 34.5438C190.013 35.0038 189.879 35.4205 189.613 35.7938C189.346 36.1605 188.949 36.4138 188.423 36.5538L190.093 39.3838H188.473ZM186.273 35.6138H187.443C187.823 35.6138 188.106 35.5238 188.293 35.3438C188.479 35.1571 188.573 34.9005 188.573 34.5738C188.573 34.2538 188.479 34.0071 188.293 33.8338C188.106 33.6538 187.823 33.5638 187.443 33.5638H186.273V35.6138ZM194.679 33.5338V35.2838H197.029V36.3938H194.679V38.2438H197.329V39.3838H193.279V32.3938H197.329V33.5338H194.679ZM202.001 33.5338V35.2838H204.351V36.3938H202.001V38.2438H204.651V39.3838H200.601V32.3938H204.651V33.5338H202.001ZM213.893 39.3838H212.493L209.323 34.5938V39.3838H207.923V32.3938H209.323L212.493 37.1938V32.3938H213.893V39.3838Z"
fill="currentColor"
/>
</svg>