<svg viewBox="0 0 92 80" fill="none" xmlns="http://www.w3.org/2000/svg">
<path d="M31.4891 79.7715C26.6815 79.583 26.5873 79.5516 24.2621 78.389C22.9738 77.7605 21.057 76.4408 20.0201 75.5296L18.1348 73.8328L15.6211 73.8957C12.5103 73.9585 9.9023 73.173 8.36264 71.6647C7.20003 70.5335 5.91174 68.2398 5.62894 66.7315C5.50326 66.2288 5.34615 60.5728 5.22046 54.1628C5.09477 46.0246 4.90624 42.4739 4.65487 42.3168C4.46634 42.1911 3.96359 42.0654 3.52369 42.0654C2.54961 42.0654 1.29274 40.9971 0.570039 39.6145C-0.215505 38.0749 -0.184083 34.3671 0.632883 32.7646C1.41843 31.2249 2.07828 30.6279 3.8379 29.8738C5.06335 29.3396 5.97458 29.2768 10.7507 29.3396C13.7986 29.4024 16.6266 29.5596 17.0979 29.7481C18.4804 30.3137 18.449 30.4708 18.1976 20.6986C18.1034 17.4936 18.1662 13.7544 18.3233 12.4033C19.0146 6.93589 21.9997 3.38523 27.9384 0.997172L30.0751 0.148784L44.749 0.023097C54.3013 -0.0397465 60.0514 0.023097 61.2455 0.243049C66.3358 1.1857 70.892 5.45906 72.3688 10.6437C72.6516 11.6806 72.7458 14.6028 72.683 21.4213L72.5887 30.785L73.8456 30.1566C74.9454 29.591 75.7623 29.5281 80.9155 29.4653C86.1629 29.4339 86.8856 29.4653 87.954 30.0309C90.6248 31.4134 92.1959 35.7496 91.0961 38.6719C90.2792 40.7457 89.0223 41.814 87.137 42.0026L85.5659 42.1283L85.4717 54.7598L85.3774 67.3599L84.4976 68.9939C83.3978 71.0991 81.7953 72.7645 80.6327 73.0159C80.13 73.1415 79.2187 73.3615 78.6217 73.5186C78.0247 73.6757 76.5479 73.8014 75.3853 73.8014C73.2486 73.8014 73.1857 73.8014 70.7663 75.6239C69.4466 76.6608 67.2156 77.9491 65.8645 78.5147L63.3822 79.583L54.7412 79.803C44.7805 80.0858 38.3704 80.0543 31.4891 79.7715ZM38.9674 76.3151L39.0617 75.2154H35.9824C34.2856 75.184 32.5888 75.0583 32.2118 74.9326C31.5205 74.6812 31.4891 74.7441 31.4891 76.1266V77.6034L35.1968 77.5092L38.8732 77.4149L38.9674 76.3151ZM49.2424 74.0528C49.368 72.1046 49.3995 67.3914 49.3366 63.5893L49.2424 56.6765L48.3311 55.5139C47.4827 54.3513 47.3571 54.3199 45.5032 54.3199C43.775 54.3199 43.4608 54.4142 42.7381 55.1997C41.764 56.2366 41.1355 57.3678 41.3555 57.7135C41.4498 57.8706 41.544 62.2696 41.5754 67.5485C41.6069 72.7959 41.6697 77.195 41.764 77.3521C41.8268 77.4778 43.4922 77.572 45.4717 77.572H49.0224L49.2424 74.0528ZM59.2031 76.4723C59.2659 75.8752 59.2345 75.184 59.1088 74.9954C58.9831 74.7755 59.0145 74.367 59.1716 74.0528C59.3602 73.7071 59.4544 70.0936 59.3916 65.0033L59.2973 56.5194L58.1033 55.3568C56.9721 54.1942 56.8778 54.1628 54.2698 54.0371C50.9391 53.9114 50.4678 54.0371 51.0334 55.0112C51.3162 55.5454 51.4733 58.2162 51.599 64.8462L51.7561 73.9585L55.0554 74.1156C57.6948 74.2413 58.3547 74.367 58.3547 74.7441C58.3547 75.1211 57.7577 75.2154 55.0554 75.2468C51.9132 75.3096 51.7561 75.3411 51.6618 76.0009C51.4419 77.4778 51.6618 77.572 55.4953 77.572H59.0774L59.2031 76.4723ZM64.0106 76.6294C66.4929 75.781 68.5667 74.3984 70.4206 72.356C72.4002 70.2193 73.28 67.737 73.28 64.3749C73.28 60.1329 71.7718 57.1164 68.7553 55.294C67.1528 54.3513 66.6814 54.2256 64.042 54.0685C62.251 53.9743 61.0255 54.0371 60.9313 54.2256C60.8056 54.4142 60.9627 55.0426 61.2769 55.6082C61.7482 56.5509 61.8111 57.7135 61.8111 64.909C61.8111 69.4652 61.9053 73.173 62.0624 73.2044C63.6021 73.3615 66.5243 71.7904 68.064 69.9679C69.0066 68.8996 69.1952 68.7739 69.1952 69.3081C69.1952 69.6852 68.5982 70.5964 67.8755 71.3505C66.4929 72.7331 62.9737 74.8383 62.2195 74.6812C61.7796 74.5869 61.4654 76.0323 61.7796 76.8179C61.9996 77.3521 61.8425 77.3835 64.0106 76.6294ZM28.9125 75.6239C28.8182 74.3356 28.7554 74.2727 27.6556 74.0842C26.0845 73.8328 23.1309 72.0104 21.9997 70.565C20.68 68.8996 19.5488 66.0716 19.5488 64.3749C19.5488 61.9868 20.0201 61.8926 20.6171 64.2178C21.3398 67.1086 22.3767 69.0253 24.0421 70.565C25.5503 71.9475 26.7129 72.6388 28.1269 72.9844L29.0067 73.2044L28.9439 65.2547C28.9125 58.4676 28.9753 57.1479 29.4152 56.1424C29.698 55.4825 29.918 54.8227 29.918 54.6341C29.918 54.4456 28.8496 54.3199 27.1529 54.3199C24.6705 54.3199 24.1364 54.4142 22.4396 55.294C19.046 56.9593 17.6635 59.4417 17.6635 63.7464C17.6635 67.737 19.3917 71.6019 22.0939 73.8014C23.3822 74.8069 27.7499 76.9436 28.5983 76.9436C28.8811 76.9436 28.9753 76.5351 28.9125 75.6239ZM39.0303 65.2861C39.156 58.9703 39.3131 56.1738 39.5959 55.671C40.2872 54.4142 40.0986 54.3199 36.9564 54.3199C34.4113 54.3199 33.8143 54.4142 33.0287 54.9798C31.1434 56.2995 31.0806 56.708 31.3319 65.6632L31.5519 73.77L33.5001 73.9271C36.1709 74.1785 38.1819 74.3356 38.559 74.2727C38.7475 74.2413 38.936 70.8792 39.0303 65.2861ZM79.3444 70.7535C80.3813 70.1879 81.2297 69.4024 81.8267 68.4911L82.7065 67.0771V54.5713V42.0654H79.5644H76.4222V48.444C76.3908 57.3678 76.1394 65.1604 75.7623 67.2028C75.6052 68.1455 75.2282 69.4338 74.8825 70.0936C74.474 70.942 74.4112 71.3505 74.6626 71.6019C75.1967 72.1675 77.5219 71.7276 79.3444 70.7535ZM16.4066 71.3819C16.4066 71.2877 16.0295 70.1251 15.5896 68.8368C14.8984 66.7944 14.7727 65.7574 14.5213 59.7245C14.3642 55.9538 14.2385 50.4865 14.2071 47.5014V42.0968L11.1906 42.0026C9.52524 41.9397 8.11126 41.9712 8.04842 42.034C7.98558 42.0968 7.92273 47.5957 7.92273 54.2256C7.92273 65.4746 7.95415 66.3544 8.51975 67.4542C9.27387 68.931 10.9078 70.5021 12.3218 71.0991C13.4215 71.5705 16.4066 71.7904 16.4066 71.3819ZM17.9149 55.2626C18.1976 54.8227 18.2919 53.2201 18.2605 49.8894C18.2291 45.7418 18.1348 45.1762 17.6949 45.2704C17.255 45.3647 17.1922 46.0874 17.0979 50.6436C17.0665 53.5344 17.1293 55.891 17.255 55.891C17.4121 55.891 17.6949 55.6082 17.9149 55.2626ZM74.0027 54.8855C74.2227 53.9114 74.0027 42.7881 73.7513 42.3796C73.6571 42.2225 73.3429 42.0654 73.0915 42.0654C72.7458 42.0654 72.6516 42.8195 72.6516 46.2445C72.6516 48.5069 72.5259 50.8635 72.3688 51.3977C72.1802 52.0575 72.1802 52.8431 72.4002 53.5972C72.9344 55.5454 73.7199 56.1738 74.0027 54.8855ZM22.5339 52.5917C23.3508 52.2147 24.702 51.9947 26.4616 51.9319L29.1324 51.8376L29.2895 41.8455L29.4466 31.8533L30.295 31.5705C30.7664 31.4134 31.2377 31.3506 31.3319 31.4134C31.4262 31.5077 31.5205 36.1267 31.5833 41.6884C31.6462 47.25 31.7404 51.8062 31.8033 51.869C31.8975 51.9319 33.5629 51.9319 35.511 51.869L39.0303 51.7747V38.7347C39.0303 27.6743 39.0931 25.569 39.5016 24.7834C39.7844 24.2493 40.1615 23.8408 40.3814 23.8408C41.5126 23.8408 41.544 24.375 41.544 38.1691V51.7747L45.3146 51.869L49.0852 51.9633V38.4833C49.0852 26.3545 49.1481 24.9406 49.6194 24.4064C50.2479 23.7151 50.4678 23.7151 51.0962 24.3435C51.5361 24.7834 51.599 26.4488 51.599 38.1377C51.599 45.459 51.6933 51.5234 51.8504 51.6176C51.976 51.6805 53.6414 51.8062 55.5267 51.8376L58.9831 51.9319V37.7292C58.9831 22.8981 58.9831 22.8981 60.24 22.8981C61.434 22.8981 61.4654 22.9924 61.4654 37.5721L61.4968 51.6491L64.4819 51.8376C66.1158 51.9633 68.0012 52.2775 68.6924 52.5603C69.3523 52.8431 69.9493 53.063 70.0121 53.063C70.1064 53.063 70.1064 43.6365 70.075 32.1047L69.9807 11.115L69.258 9.54389C68.3154 7.47006 66.0216 5.14484 63.7906 4.01366C62.7851 3.51091 61.9053 3.10243 61.8111 3.10243C61.7168 3.10243 61.654 5.52191 61.654 8.47555C61.654 13.4716 61.6854 13.8487 62.2195 13.6287C63.9792 12.906 64.262 13.1574 63.3507 14.7285C62.628 15.9225 59.4544 17.6821 56.6265 18.4991C54.6783 19.0333 53.0444 19.1904 47.0428 19.3475C36.5794 19.5989 33.2173 19.0333 28.7239 16.2053C27.0272 15.137 26.7444 14.8542 26.8386 14.1315C26.9015 13.5659 27.09 13.3459 27.4985 13.4088C27.7813 13.4402 28.284 13.503 28.5983 13.5659C29.0696 13.6287 29.1324 13.1888 29.2267 8.5384C29.2895 4.54783 29.2267 3.41665 28.9125 3.41665C28.6925 3.41665 27.8127 3.76229 26.9329 4.17077C23.4451 5.8047 21.3712 8.66408 20.8999 12.3719C20.5857 14.7599 20.7428 53.4715 21.057 53.3144C21.1827 53.2516 21.8426 52.9374 22.5339 52.5917ZM18.1034 43.9193C18.4176 42.3482 18.3233 42.0654 17.5692 42.0654C16.9408 42.0654 16.8779 42.1911 16.9722 43.4794C17.1293 45.1448 17.7892 45.3961 18.1034 43.9193ZM17.9777 37.1322C17.9777 34.4614 17.2864 32.9845 15.7782 32.2933C14.8669 31.8848 13.8614 31.8219 9.55666 31.979L4.40349 32.1676L3.49226 33.2045C2.70672 34.0843 2.58103 34.4614 2.58103 36.0324C2.58103 39.1746 2.70672 39.206 11.1592 39.2375H17.9777V37.1322ZM87.8597 38.829C88.6767 38.232 88.8966 35.624 88.2682 34.1471C87.4198 32.1361 86.8542 31.9476 80.8527 31.9162L75.4795 31.8533L74.3169 33.016C73.2486 34.0843 73.1543 34.3671 73.0286 36.2524C72.9344 37.6035 73.0286 38.4519 73.28 38.7661C73.8142 39.426 86.9799 39.4574 87.8597 38.829ZM39.156 16.7081C39.1245 16.4881 39.0931 13.1888 39.0931 9.38678L39.0303 2.47399H35.4482C31.929 2.47399 31.8661 2.47399 31.7404 3.22812C31.4262 4.89347 31.4576 13.7544 31.8033 14.3828C32.7145 16.1425 39.2817 18.1849 39.156 16.7081ZM49.0852 16.8652C49.0852 16.7081 49.0852 13.4402 49.0852 9.54389V2.47399H45.3146H41.544V9.63816C41.544 13.5973 41.6383 16.928 41.764 17.0537C42.0468 17.3365 49.0852 17.148 49.0852 16.8652ZM56.0923 16.3624C56.595 16.1425 57.4749 15.6083 58.0719 15.1684C59.1088 14.3828 59.1402 14.2572 59.1402 12.2147C59.1402 11.0521 59.0459 8.38129 58.9203 6.27603L58.7317 2.44257L55.2439 2.53684L51.7561 2.6311L51.6618 9.54389C51.6304 13.3459 51.6304 16.5824 51.7247 16.7709C51.8818 17.1794 54.7412 16.8966 56.0923 16.3624Z" />
<path d="M42.1725 74.7126C42.1725 74.1156 42.2668 74.0842 45.2518 74.3041C48.4883 74.5241 48.8967 74.6184 48.6139 75.0897C48.4883 75.2468 47.0114 75.3725 45.2832 75.3725C42.361 75.3725 42.1725 75.3411 42.1725 74.7126Z" />
<path d="M29.6666 27.5171C29.4781 27.2972 29.2895 26.4488 29.2581 25.6004C29.1953 24.4064 29.2895 23.9979 29.7609 23.6208C30.8606 22.8353 31.332 23.2438 31.4262 25.0662C31.4891 26.2917 31.3948 26.8887 30.9863 27.3286C30.3579 28.0199 30.1065 28.0513 29.6666 27.5171Z" />
</svg>
