<svg  viewBox="0 0 38 24" fill="none" xmlns="http://www.w3.org/2000/svg">
<path fill-rule="evenodd" clip-rule="evenodd" d="M5 0H33C35.7614 0 38 2.23858 38 5V19C38 21.7614 35.7614 24 33 24H5C2.23858 24 0 21.7614 0 19V5C0 2.23858 2.23858 0 5 0ZM15.957 7.9H13.539C13.227 7.9 13.032 8.043 12.954 8.329L11.719 13.165L10.484 8.329C10.406 8.043 10.211 7.9 9.899 7.9H7.481C7.403 7.9 7.33367 7.93033 7.273 7.991C7.221 8.043 7.195 8.095 7.195 8.147C7.195 8.199 7.19933 8.24233 7.208 8.277L9.652 16.571C9.73 16.857 9.925 17 10.237 17H13.201C13.513 17 13.708 16.857 13.786 16.571L16.23 8.277C16.2387 8.24233 16.243 8.199 16.243 8.147C16.243 8.095 16.2127 8.043 16.152 7.991C16.1 7.93033 16.035 7.9 15.957 7.9ZM17.6286 17H20.2806C20.3759 17 20.4583 16.9653 20.5276 16.896C20.597 16.8267 20.6316 16.7443 20.6316 16.649V8.251C20.6316 8.15567 20.597 8.07333 20.5276 8.004C20.4583 7.93467 20.3759 7.9 20.2806 7.9H17.6286C17.5333 7.9 17.451 7.93467 17.3816 8.004C17.3123 8.07333 17.2776 8.15567 17.2776 8.251V16.649C17.2776 16.7443 17.3123 16.8267 17.3816 16.896C17.451 16.9653 17.5333 17 17.6286 17ZM26.5427 7.9H22.6687C22.5733 7.9 22.491 7.93467 22.4217 8.004C22.3523 8.07333 22.3177 8.15567 22.3177 8.251V16.649C22.3177 16.7443 22.3523 16.8267 22.4217 16.896C22.491 16.9653 22.5733 17 22.6687 17H25.3467C25.442 17 25.5243 16.9653 25.5937 16.896C25.663 16.8267 25.6977 16.7443 25.6977 16.649V14.166H26.5427C27.7993 14.166 28.7743 13.9147 29.4677 13.412C30.1697 12.9093 30.5207 12.1337 30.5207 11.085C30.5207 10.0363 30.1697 9.24333 29.4677 8.706C28.7657 8.16867 27.7907 7.9 26.5427 7.9ZM25.6327 11.761V10.318H26.5427C26.7507 10.318 26.9023 10.3917 26.9977 10.539C27.093 10.6863 27.1407 10.8683 27.1407 11.085C27.1407 11.3017 27.08 11.4707 26.9587 11.592C26.8373 11.7047 26.6987 11.761 26.5427 11.761H25.6327Z" fill="currentColor"/>
</svg>
