<svg  viewBox="0 0 24 24" fill="none" xmlns="http://www.w3.org/2000/svg">
<path d="M4.5 19.3985H21M12.141 14.6596V19.5M15.3724 10.7832H12.0429L11.0607 5.02952C10.9785 4.46563 10.7035 3.95084 10.2855 3.5785C9.86743 3.20616 9.3341 3.00092 8.78217 3C8.44864 3.00644 8.12042 3.0875 7.82013 3.2376C7.51983 3.3877 7.2546 3.60328 7.0427 3.86948C6.8308 4.13568 6.67726 4.44617 6.59267 4.77957C6.50808 5.11298 6.49445 5.46136 6.55271 5.80073L7.97682 14.6494H15.4804C15.7531 14.649 16.0224 14.5871 16.2696 14.4681C16.5168 14.3492 16.7359 14.1759 16.9117 13.9605C17.0874 13.7451 17.2156 13.4927 17.2873 13.2208C17.359 12.949 17.3725 12.6643 17.3268 12.3865C17.2313 11.9267 16.9842 11.5154 16.6277 11.223C16.2712 10.9305 15.8275 10.7751 15.3724 10.7832Z" stroke="currentColor" stroke-miterlimit="10"/>
</svg>
