<?xml version="1.0" encoding="utf-8"?><svg xmlns="http://www.w3.org/2000/svg" xmlns:xlink="http://www.w3.org/1999/xlink"><symbol fill="none" stroke="currentColor" stroke-width="1.5" viewBox="0 0 24 24" id="arrow-left" xmlns="http://www.w3.org/2000/svg"><path stroke-linecap="round" stroke-linejoin="round" d="M10.5 19.5 3 12m0 0 7.5-7.5M3 12h18"/></symbol><symbol fill="none" stroke="currentColor" stroke-width="2" viewBox="0 0 24 24" id="chevron-down" xmlns="http://www.w3.org/2000/svg"><path stroke-linecap="round" stroke-linejoin="round" d="m19.5 8.25-7.5 7.5-7.5-7.5"/></symbol><symbol fill="none" stroke="currentColor" stroke-width="1.5" viewBox="0 0 24 24" id="clipboard-doc" xmlns="http://www.w3.org/2000/svg"><path stroke-linecap="round" stroke-linejoin="round" d="M8.25 7.5V6.108c0-1.135.845-2.098 1.976-2.192q.56-.045 1.123-.08M15.75 18H18a2.25 2.25 0 0 0 2.25-2.25V6.108c0-1.135-.845-2.098-1.976-2.192a48 48 0 0 0-1.123-.08M15.75 18.75v-1.875a3.375 3.375 0 0 0-3.375-3.375h-1.5a1.125 1.125 0 0 1-1.125-1.125v-1.5A3.375 3.375 0 0 0 6.375 7.5H5.25m11.9-3.664A2.25 2.25 0 0 0 15 2.25h-1.5a2.25 2.25 0 0 0-2.15 1.586m5.8 0q.099.316.1.664v.75h-6V4.5q.001-.348.1-.664M6.75 7.5H4.875c-.621 0-1.125.504-1.125 1.125v12c0 .621.504 1.125 1.125 1.125h9.75c.621 0 1.125-.504 1.125-1.125V16.5a9 9 0 0 0-9-9"/></symbol><symbol fill="none" stroke="currentColor" stroke-width="1.5" viewBox="0 0 24 24" id="clipboard-doc-check" xmlns="http://www.w3.org/2000/svg"><path stroke-linecap="round" stroke-linejoin="round" d="M11.35 3.836q-.099.316-.1.664c0 .414.336.75.75.75h4.5a.75.75 0 0 0 .75-.75 2.3 2.3 0 0 0-.1-.664m-5.8 0A2.25 2.25 0 0 1 13.5 2.25H15a2.25 2.25 0 0 1 2.15 1.586m-5.8 0q-.563.035-1.124.08C9.095 4.01 8.25 4.973 8.25 6.108V8.25m8.9-4.414q.564.035 1.124.08c1.131.094 1.976 1.057 1.976 2.192V16.5A2.25 2.25 0 0 1 18 18.75h-2.25m-7.5-10.5H4.875c-.621 0-1.125.504-1.125 1.125v11.25c0 .621.504 1.125 1.125 1.125h9.75c.621 0 1.125-.504 1.125-1.125V18.75m-7.5-10.5h6.375c.621 0 1.125.504 1.125 1.125v9.375m-8.25-3 1.5 1.5 3-3.75"/></symbol><symbol fill="none" stroke="currentColor" stroke-width="1.5" viewBox="0 0 24 24" id="close" xmlns="http://www.w3.org/2000/svg"><path stroke-linecap="round" stroke-linejoin="round" d="M6 18 18 6M6 6l12 12"/></symbol><symbol fill="none" stroke="currentColor" stroke-width="1.5" viewBox="0 0 24 24" id="default" xmlns="http://www.w3.org/2000/svg"><path stroke-linecap="round" stroke-linejoin="round" d="M9.879 7.519c1.171-1.025 3.071-1.025 4.242 0 1.172 1.025 1.172 2.687 0 3.712-.203.179-.43.326-.67.442-.745.361-1.45.999-1.45 1.827v.75M21 12a9 9 0 1 1-18 0 9 9 0 0 1 18 0m-9 5.25h.008v.008H12z"/></symbol><symbol fill="none" viewBox="0 0 24 24" id="enter" xmlns="http://www.w3.org/2000/svg"><path fill="currentColor" fill-rule="evenodd" d="M14 3a1 1 0 0 1 1-1h4a3 3 0 0 1 3 3v14a3 3 0 0 1-3 3h-4a1 1 0 1 1 0-2h4a1 1 0 0 0 1-1V5a1 1 0 0 0-1-1h-4a1 1 0 0 1-1-1M9.293 6.293a1 1 0 0 1 1.414 0l5 5a1 1 0 0 1 0 1.414l-5 5a1 1 0 0 1-1.414-1.414L12.586 13H3a1 1 0 1 1 0-2h9.586L9.293 7.707a1 1 0 0 1 0-1.414" clip-rule="evenodd"/></symbol><symbol fill="none" stroke="currentColor" stroke-width="1.5" viewBox="0 0 24 24" id="eye" xmlns="http://www.w3.org/2000/svg"><path stroke-linecap="round" stroke-linejoin="round" d="M2.036 12.322a1 1 0 0 1 0-.639C3.423 7.51 7.36 4.5 12 4.5c4.638 0 8.573 3.007 9.963 7.178.07.207.07.431 0 .639C20.577 16.49 16.64 19.5 12 19.5c-4.638 0-8.573-3.007-9.963-7.178Z"/><path stroke-linecap="round" stroke-linejoin="round" d="M15 12a3 3 0 1 1-6 0 3 3 0 0 1 6 0"/></symbol><symbol fill="none" stroke="currentColor" stroke-width="1.5" viewBox="0 0 24 24" id="eye-slash" xmlns="http://www.w3.org/2000/svg"><path stroke-linecap="round" stroke-linejoin="round" d="M3.98 8.223A10.5 10.5 0 0 0 1.934 12c1.292 4.338 5.31 7.5 10.066 7.5.993 0 1.953-.138 2.863-.395M6.228 6.228A10.45 10.45 0 0 1 12 4.5c4.756 0 8.773 3.162 10.065 7.498a10.52 10.52 0 0 1-4.293 5.774M6.228 6.228 3 3m3.228 3.228 3.65 3.65m7.894 7.894L21 21m-3.228-3.228-3.65-3.65m0 0a3 3 0 1 0-4.243-4.243m4.242 4.242L9.88 9.88"/></symbol><symbol fill="none" stroke="currentColor" stroke-width="1.5" viewBox="0 0 24 24" id="filter" xmlns="http://www.w3.org/2000/svg"><path stroke-linecap="round" stroke-linejoin="round" d="M12 3c2.755 0 5.455.232 8.083.678.533.09.917.556.917 1.096v1.044a2.25 2.25 0 0 1-.659 1.591l-5.432 5.432a2.25 2.25 0 0 0-.659 1.591v2.927a2.25 2.25 0 0 1-1.244 2.013L9.75 21v-6.568a2.25 2.25 0 0 0-.659-1.591L3.659 7.409A2.25 2.25 0 0 1 3 5.818V4.774c0-.54.384-1.006.917-1.096A48.3 48.3 0 0 1 12 3"/></symbol><symbol fill="none" stroke="currentColor" stroke-width="1.5" viewBox="0 0 24 24" id="key" xmlns="http://www.w3.org/2000/svg"><path stroke-linecap="round" stroke-linejoin="round" d="M15.75 5.25a3 3 0 0 1 3 3m3 0a6 6 0 0 1-7.029 5.912c-.563-.097-1.159.026-1.563.43L10.5 17.25H8.25v2.25H6v2.25H2.25v-2.818c0-.597.237-1.17.659-1.591l6.499-6.499c.404-.404.527-1 .43-1.563A6 6 0 1 1 21.75 8.25"/></symbol><symbol fill="none" stroke="currentColor" stroke-width="1.5" viewBox="0 0 24 24" id="lock-closed" xmlns="http://www.w3.org/2000/svg"><path stroke-linecap="round" stroke-linejoin="round" d="M16.5 10.5V6.75a4.5 4.5 0 1 0-9 0v3.75m-.75 11.25h10.5a2.25 2.25 0 0 0 2.25-2.25v-6.75a2.25 2.25 0 0 0-2.25-2.25H6.75a2.25 2.25 0 0 0-2.25 2.25v6.75a2.25 2.25 0 0 0 2.25 2.25"/></symbol><symbol fill="none" stroke="currentColor" stroke-width="1.5" viewBox="0 0 24 24" id="lock-open" xmlns="http://www.w3.org/2000/svg"><path stroke-linecap="round" stroke-linejoin="round" d="M13.5 10.5V6.75a4.5 4.5 0 1 1 9 0v3.75M3.75 21.75h10.5a2.25 2.25 0 0 0 2.25-2.25v-6.75a2.25 2.25 0 0 0-2.25-2.25H3.75a2.25 2.25 0 0 0-2.25 2.25v6.75a2.25 2.25 0 0 0 2.25 2.25"/></symbol><symbol fill="none" stroke="currentColor" stroke-width="1.5" viewBox="0 0 24 24" id="logout" xmlns="http://www.w3.org/2000/svg"><path stroke-linecap="round" stroke-linejoin="round" d="M15.75 9V5.25A2.25 2.25 0 0 0 13.5 3h-6a2.25 2.25 0 0 0-2.25 2.25v13.5A2.25 2.25 0 0 0 7.5 21h6a2.25 2.25 0 0 0 2.25-2.25V15m3 0 3-3m0 0-3-3m3 3H9"/></symbol><symbol fill="none" stroke="currentColor" stroke-width="1.5" viewBox="0 0 24 24" id="map-pin" xmlns="http://www.w3.org/2000/svg"><path stroke-linecap="round" stroke-linejoin="round" d="M15 10.5a3 3 0 1 1-6 0 3 3 0 0 1 6 0"/><path stroke-linecap="round" stroke-linejoin="round" d="M19.5 10.5c0 7.142-7.5 11.25-7.5 11.25S4.5 17.642 4.5 10.5a7.5 7.5 0 1 1 15 0"/></symbol><symbol fill="none" stroke="currentColor" stroke-width="1.5" viewBox="0 0 24 24" id="moon" xmlns="http://www.w3.org/2000/svg"><path stroke-linecap="round" stroke-linejoin="round" d="M21.752 15.002A9.7 9.7 0 0 1 18 15.75 9.75 9.75 0 0 1 8.25 6c0-1.33.266-2.597.748-3.752A9.75 9.75 0 0 0 3 11.25 9.75 9.75 0 0 0 12.75 21a9.75 9.75 0 0 0 9.002-5.998"/></symbol><symbol fill="none" stroke="currentColor" stroke-width="1.5" viewBox="0 0 24 24" id="register" xmlns="http://www.w3.org/2000/svg"><path stroke-linecap="round" stroke-linejoin="round" d="M8.25 9V5.25A2.25 2.25 0 0 1 10.5 3h6a2.25 2.25 0 0 1 2.25 2.25v13.5A2.25 2.25 0 0 1 16.5 21h-6a2.25 2.25 0 0 1-2.25-2.25V15M12 9l3 3m0 0-3 3m3-3H2.25"/></symbol><symbol fill="none" viewBox="0 0 379 71" id="screen" xmlns="http://www.w3.org/2000/svg"><path stroke="currentColor" stroke-width="2" d="M25 40c128.484-27.438 200.514-28.557 329 0"/><path fill="currentColor" d="M169.513 39.454q-.73 0-1.32-.25a2.16 2.16 0 0 1-.92-.72 1.9 1.9 0 0 1-.35-1.11h1.5q.03.43.3.68.28.25.76.25.49 0 .77-.23a.78.78 0 0 0 .28-.62.7.7 0 0 0-.19-.51 1.3 1.3 0 0 0-.48-.31 7 7 0 0 0-.78-.26 9 9 0 0 1-1.11-.39 2.06 2.06 0 0 1-.73-.59q-.3-.4-.3-1.06 0-.621.31-1.08t.87-.7q.56-.25 1.28-.25 1.08 0 1.75.53.68.52.75 1.46h-1.54a.78.78 0 0 0-.31-.59q-.28-.24-.75-.24-.41 0-.66.21-.24.21-.24.61 0 .28.18.47.19.18.46.3.28.11.78.26.68.2 1.11.4t.74.6.31 1.05q0 .56-.29 1.04a2.1 2.1 0 0 1-.85.77q-.56.28-1.33.28m5.344-3.57q0-1.03.46-1.84a3.3 3.3 0 0 1 1.27-1.27 3.6 3.6 0 0 1 1.81-.46q1.17 0 2.05.6t1.23 1.66h-1.61a1.66 1.66 0 0 0-.68-.75 1.95 1.95 0 0 0-1-.25q-.61 0-1.09.29-.47.28-.74.8-.26.52-.26 1.22 0 .69.26 1.22.27.52.74.81.48.28 1.09.28.57 0 1-.25.44-.26.68-.76h1.61q-.35 1.07-1.23 1.67-.87.59-2.05.59-1 0-1.81-.45a3.4 3.4 0 0 1-1.27-1.27q-.46-.81-.46-1.84m13.616 3.5-1.54-2.72h-.66v2.72h-1.4v-6.98h2.62q.81 0 1.38.29.57.28.85.77.29.48.29 1.08 0 .69-.4 1.25-.4.55-1.19.76l1.67 2.83zm-2.2-3.77h1.17q.57 0 .85-.27.28-.28.28-.77 0-.48-.28-.74-.28-.27-.85-.27h-1.17zm8.406-2.08v1.75h2.35v1.11h-2.35v1.85h2.65v1.14h-4.05v-6.99h4.05v1.14zm7.322 0v1.75h2.35v1.11h-2.35v1.85h2.65v1.14h-4.05v-6.99h4.05v1.14zm11.892 5.85h-1.4l-3.17-4.79v4.79h-1.4v-6.99h1.4l3.17 4.8v-4.8h1.4z"/></symbol><symbol fill="none" stroke="currentColor" stroke-width="1.5" viewBox="0 0 24 24" id="search" xmlns="http://www.w3.org/2000/svg"><path stroke-linecap="round" stroke-linejoin="round" d="m21 21-5.197-5.197m0 0A7.5 7.5 0 1 0 5.196 5.196a7.5 7.5 0 0 0 10.607 10.607"/></symbol><symbol fill="none" viewBox="0 0 92 80" id="seat" xmlns="http://www.w3.org/2000/svg"><path fill="currentColor" d="M31.49 79.772c-4.808-.189-4.903-.22-7.228-1.383-1.288-.629-3.205-1.948-4.242-2.86l-1.885-1.696-2.514.063c-3.11.063-5.719-.723-7.258-2.231C7.2 70.533 5.912 68.24 5.629 66.73c-.126-.502-.283-6.158-.409-12.568-.125-8.138-.314-11.69-.565-11.846-.189-.126-.691-.252-1.131-.252-.974 0-2.231-1.068-2.954-2.45-.786-1.54-.754-5.248.063-6.85.785-1.54 1.445-2.137 3.205-2.891 1.225-.534 2.137-.597 6.913-.534 3.048.062 5.876.22 6.347.408 1.382.566 1.351.723 1.1-9.05-.095-3.204-.032-6.944.125-8.295C19.015 6.936 22 3.385 27.938.997L30.075.15 44.75.023c9.552-.063 15.302 0 16.496.22 5.09.943 9.647 5.216 11.124 10.4.283 1.038.377 3.96.314 10.778l-.094 9.364 1.257-.628c1.1-.566 1.916-.629 7.07-.692 5.247-.031 5.97 0 7.038.566 2.67 1.382 4.242 5.719 3.142 8.64-.817 2.075-2.074 3.143-3.959 3.332l-1.571.125-.094 12.632-.095 12.6-.88 1.634c-1.1 2.105-2.702 3.77-3.864 4.022-.503.125-1.414.346-2.011.503s-2.074.282-3.237.282c-2.136 0-2.2 0-4.619 1.823-1.32 1.037-3.55 2.325-4.901 2.89l-2.483 1.069-8.64.22c-9.961.283-16.372.251-23.253-.031m7.477-3.457.095-1.1h-3.08c-1.696-.031-3.393-.157-3.77-.282-.692-.252-.723-.189-.723 1.194v1.476l3.708-.094 3.676-.094zm10.275-2.262c.126-1.948.158-6.662.095-10.464l-.095-6.913-.91-1.162c-.85-1.163-.975-1.194-2.829-1.194-1.728 0-2.042.094-2.765.88-.974 1.037-1.602 2.168-1.383 2.514.095.157.189 4.556.22 9.835.032 5.247.095 9.646.189 9.803.063.126 1.728.22 3.708.22h3.55zm9.961 2.42c.063-.598.031-1.289-.094-1.478-.126-.22-.095-.628.063-.942.188-.346.282-3.96.22-9.05l-.095-8.484-1.194-1.162c-1.13-1.163-1.225-1.194-3.833-1.32-3.33-.126-3.802 0-3.237.974.283.534.44 3.205.566 9.835l.157 9.112 3.3.158c2.639.125 3.299.251 3.299.628s-.597.471-3.3.503c-3.142.063-3.299.094-3.393.754-.22 1.477 0 1.571 3.833 1.571h3.582zm4.808.156c2.482-.848 4.556-2.23 6.41-4.273 1.98-2.137 2.859-4.619 2.859-7.981 0-4.242-1.508-7.259-4.525-9.081-1.602-.943-2.074-1.068-4.713-1.225-1.791-.095-3.017-.032-3.11.157-.126.188.03.817.345 1.382.471.943.534 2.106.534 9.301 0 4.556.094 8.264.251 8.295 1.54.158 4.462-1.414 6.002-3.236.943-1.068 1.131-1.194 1.131-.66 0 .377-.597 1.288-1.32 2.042-1.382 1.383-4.901 3.488-5.656 3.331-.44-.094-.754 1.351-.44 2.137.22.534.063.566 2.232-.189m-35.098-1.005c-.095-1.288-.158-1.351-1.257-1.54-1.572-.251-4.525-2.074-5.656-3.519-1.32-1.665-2.451-4.493-2.451-6.19 0-2.388.471-2.482 1.068-.157.723 2.89 1.76 4.807 3.425 6.347 1.508 1.383 2.67 2.074 4.085 2.42l.88.22-.063-7.95c-.031-6.787.031-8.107.471-9.113.283-.66.503-1.32.503-1.508s-1.068-.314-2.765-.314c-2.482 0-3.017.094-4.713.974-3.394 1.665-4.777 4.148-4.777 8.452 0 3.991 1.729 7.856 4.43 10.055 1.29 1.006 5.657 3.143 6.505 3.143.283 0 .377-.409.315-1.32M39.03 65.286c.126-6.316.283-9.112.566-9.615.691-1.257.503-1.351-2.64-1.351-2.545 0-3.142.094-3.927.66-1.886 1.32-1.948 1.728-1.697 10.683l.22 8.107 1.948.157c2.67.251 4.682.409 5.059.346.189-.032.377-3.394.471-8.987m40.314 5.468a6.9 6.9 0 0 0 2.483-2.263l.88-1.414V42.065h-6.285v6.379c-.031 8.924-.283 16.716-.66 18.759-.157.942-.534 2.23-.88 2.89-.408.849-.47 1.257-.22 1.509.535.566 2.86.126 4.682-.849m-62.937.628c0-.094-.378-1.257-.817-2.545-.692-2.043-.817-3.08-1.069-9.113-.157-3.77-.283-9.237-.314-12.223v-5.404l-3.016-.094c-1.666-.063-3.08-.032-3.143.031s-.125 5.562-.125 12.192c0 11.249.031 12.128.597 13.228.754 1.477 2.388 3.048 3.802 3.645 1.1.471 4.085.691 4.085.283m1.508-16.12c.283-.44.377-2.042.346-5.373-.032-4.147-.126-4.713-.566-4.619s-.503.817-.597 5.374c-.031 2.89.031 5.247.157 5.247.157 0 .44-.283.66-.628m56.088-.377c.22-.974 0-12.097-.252-12.505-.094-.158-.408-.315-.66-.315-.345 0-.44.755-.44 4.18 0 2.262-.125 4.619-.282 5.153-.189.66-.189 1.445.031 2.2.534 1.947 1.32 2.576 1.603 1.288m-51.47-2.293c.818-.377 2.169-.597 3.929-.66l2.67-.094.157-9.992.158-9.993.848-.283c.471-.157.943-.22 1.037-.157.094.095.188 4.714.251 10.275.063 5.562.157 10.118.22 10.181.095.063 1.76.063 3.708 0l3.52-.094v-13.04c0-11.06.062-13.166.47-13.952.283-.534.66-.942.88-.942 1.132 0 1.163.534 1.163 14.328v13.606l3.77.094 3.771.094v-13.48c0-12.128.063-13.542.534-14.077.629-.69.849-.69 1.477-.062.44.44.503 2.105.503 13.794 0 7.321.094 13.385.251 13.48.126.063 1.791.188 3.677.22l3.456.094V37.729c0-14.83 0-14.83 1.257-14.83 1.194 0 1.225.093 1.225 14.673l.032 14.077 2.985.189c1.634.125 3.52.44 4.21.722.66.283 1.257.503 1.32.503.094 0 .094-9.427.063-20.958l-.094-20.99-.723-1.571c-.943-2.074-3.236-4.4-5.467-5.53-1.006-.503-1.886-.912-1.98-.912s-.157 2.42-.157 5.374c0 4.996.031 5.373.565 5.153 1.76-.723 2.043-.472 1.132 1.1-.723 1.194-3.897 2.953-6.724 3.77-1.949.534-3.583.691-9.584.849-10.464.25-13.826-.315-18.32-3.143-1.696-1.068-1.979-1.35-1.884-2.073.063-.566.251-.786.66-.723.282.031.785.094 1.1.157.47.063.533-.377.628-5.028.063-3.99 0-5.121-.314-5.121-.22 0-1.1.345-1.98.754-3.488 1.634-5.562 4.493-6.033 8.2-.314 2.389-.157 41.1.157 40.943.126-.062.786-.377 1.477-.722m-4.43-8.673c.315-1.57.22-1.854-.534-1.854-.628 0-.691.126-.597 1.414.157 1.666.817 1.917 1.131.44m-.125-6.787c0-2.67-.692-4.148-2.2-4.839-.911-.408-1.917-.471-6.221-.314l-5.154.189-.91 1.037c-.786.88-.912 1.256-.912 2.827 0 3.143.126 3.174 8.578 3.206h6.819zM87.86 38.83c.817-.597 1.037-3.205.408-4.682-.848-2.01-1.414-2.2-7.415-2.23l-5.373-.064-1.163 1.163c-1.068 1.068-1.163 1.351-1.288 3.236-.095 1.351 0 2.2.251 2.514.534.66 13.7.691 14.58.063M39.156 16.71c-.032-.22-.063-3.52-.063-7.322l-.063-6.913h-3.582c-3.519 0-3.582 0-3.708.754-.314 1.665-.282 10.526.063 11.155.912 1.76 7.479 3.802 7.353 2.325m9.93.156V2.474h-7.542v7.164c0 3.96.094 7.29.22 7.416.283.283 7.321.094 7.321-.189m7.006-.503c.503-.22 1.383-.754 1.98-1.194 1.037-.785 1.068-.91 1.068-2.953 0-1.163-.094-3.834-.22-5.939l-.188-3.833-3.488.094-3.488.094-.094 6.913c-.032 3.802-.032 7.038.063 7.227.157.408 3.016.126 4.367-.409"/><path fill="currentColor" d="M42.173 74.713c0-.597.094-.629 3.079-.409 3.236.22 3.645.314 3.362.786-.126.157-1.603.282-3.33.282-2.923 0-3.111-.03-3.111-.66M29.667 27.517c-.189-.22-.378-1.068-.409-1.917-.063-1.194.032-1.602.503-1.98 1.1-.785 1.571-.376 1.665 1.446.063 1.226-.031 1.823-.44 2.263-.628.69-.88.722-1.32.188"/></symbol><symbol fill="none" viewBox="0 0 33 32" id="spinner" xmlns="http://www.w3.org/2000/svg"><path fill="currentColor" d="M13.18.13a16.55 16.55 0 0 0-7.011 3.236c-2.035 1.602-3.74 3.78-4.78 6.119A16.2 16.2 0 0 0 .125 18.04c.56 4.375 2.904 8.331 6.509 10.978a16.8 16.8 0 0 0 4.639 2.38c.768.253 2.213.601 2.479.601h.084v-2.554l-.074-.013c-1.914-.408-3.483-1.051-5.013-2.053a14.3 14.3 0 0 1-3.345-3.1c-1.516-1.97-2.422-4.19-2.742-6.706-.084-.684-.084-2.471 0-3.134.226-1.708.654-3.111 1.405-4.577a13.84 13.84 0 0 1 9.062-7.117l.633-.15.074-.013V1.29c0-.713-.003-1.293-.007-1.29-.006 0-.296.06-.65.13m6.384 1.256V2.68l.145.036c1.169.299 2.045.614 2.964 1.065a14 14 0 0 1 5.37 4.69c1.206 1.78 1.944 3.767 2.223 5.985.048.375.061.723.061 1.559 0 1.154-.034 1.572-.206 2.487a13.6 13.6 0 0 1-2.593 5.774 14.6 14.6 0 0 1-2.665 2.627c-1.556 1.16-3.13 1.897-5.154 2.41l-.145.037v2.59l.128-.02c.37-.066 1.445-.351 1.96-.517a16.5 16.5 0 0 0 7.964-5.638 15 15 0 0 0 1.62-2.603 15.2 15.2 0 0 0 1.365-3.93 16 16 0 0 0-2.183-11.823c-2.004-3.16-5.11-5.572-8.725-6.769-.505-.17-1.654-.47-1.984-.527L19.563.09z"/></symbol><symbol fill="none" stroke="currentColor" stroke-width="1.5" viewBox="0 0 24 24" id="sun" xmlns="http://www.w3.org/2000/svg"><path stroke-linecap="round" stroke-linejoin="round" d="M12 3v2.25m6.364.386-1.591 1.591M21 12h-2.25m-.386 6.364-1.591-1.591M12 18.75V21m-4.773-4.227-1.591 1.591M5.25 12H3m4.227-4.773L5.636 5.636M15.75 12a3.75 3.75 0 1 1-7.5 0 3.75 3.75 0 0 1 7.5 0"/></symbol></svg>